<svg width="193" height="37" viewBox="0 0 193 37" fill="none" xmlns="http://www.w3.org/2000/svg">
<path d="M24.95 0.999998V26.2L10.6 0.999998H4.7V36H10.2V10.9L24.55 36H30.45V0.999998H24.95ZM37.952 0.999998V36H43.452V20.45H56.102V15.25H43.452V6.2H59.152V0.999998H37.952ZM64.0266 6.2H73.8266V36H79.3266V6.2H89.1266V0.999998H64.0266V6.2ZM106.459 21.7C113.409 21.7 117.309 17.25 117.309 11.35C117.309 5.45 113.409 0.999998 106.459 0.999998H93.909V36H99.409V21.7H106.459ZM106.709 16.5H99.409V6.2H106.709C109.859 6.2 111.709 8.1 111.709 11.35C111.709 14.6 109.859 16.5 106.709 16.5ZM120.761 23.4C120.761 30.5 125.361 36.4 133.161 36.4C140.961 36.4 145.561 30.5 145.561 23.4C145.561 16.3 140.961 10.4 133.161 10.4C125.361 10.4 120.761 16.3 120.761 23.4ZM126.261 23.4C126.261 19.15 128.611 15 133.161 15C137.711 15 140.061 19.15 140.061 23.4C140.061 27.65 137.711 31.8 133.161 31.8C128.611 31.8 126.261 27.65 126.261 23.4ZM156.277 36V26.65C156.277 18.7 159.727 15 163.077 15C164.127 15 165.227 15.25 166.027 15.75L166.927 11C166.177 10.7 165.077 10.4 163.727 10.4C161.027 10.4 158.027 12 156.277 15V10.8H151.077V36H156.277ZM171.265 15.4H175.465V27.4C175.465 33.6 178.965 36.4 183.715 36.4C185.115 36.4 186.415 36.15 187.765 35.5L186.415 31.1C185.515 31.65 184.915 31.8 184.015 31.8C181.715 31.8 180.665 30.55 180.665 27.7V15.4H187.215V10.8H180.665V0.6L175.465 3.85V10.8H171.265V15.4Z" fill="black"/>
</svg>
